<svg version="1.1" id="Layer_1" xmlns="http://www.w3.org/2000/svg" xmlns:xlink="http://www.w3.org/1999/xlink" x="0px" y="0px" viewBox="0 0 500 500" style="width: 132px;" xml:space="preserve" data-imageid="dog-walking-79" imageName="Dog Walking" class="illustrations_image">
<style type="text/css">
	.st0_dog-walking-79{fill:#725858;}
	.st1_dog-walking-79{fill:#093F68;}
	.st2_dog-walking-79{fill:#FFC9B0;}
	.st3_dog-walking-79{fill:#68E1FD;}
	.st4_dog-walking-79{fill:#70CC40;}
	.st5_dog-walking-79{fill:#FFFFFF;}
	.st6_dog-walking-79{fill:#F56132;}
	.st7_dog-walking-79{fill:#FFBC0E;}
</style>
<g id="character_dog-walking-79">
	<path class="st0_dog-walking-79" d="M147.2,72.3c4.2-1.9,8.6-3.1,13.2-3.5c12.5-0.9,24.7,3.9,33.1,13.2c9.7,10.8,13.7,28.2,14.9,42.3&#10;&#9;&#9;c1.5,18.9,1.9,37.8,1.4,56.7c-0.2,1.9-0.7,3.7-1.4,5.5c0,0-24.1,20.5-73.9,11.8c-15.6-2.7-31.4-4.3-47-6.9&#10;&#9;&#9;c2.6-13,2.3-26.5,4.8-39.4c2.1-10.8,4.4-21.6,6-32.7c1.6-10.9,3.2-25.8,14-31.6c5.5-2.9,12-3.1,17.6-0.5&#10;&#9;&#9;C134.1,80.7,140.1,75.5,147.2,72.3z"/>
	<path class="st1_dog-walking-79" d="M158.5,202.5c-8.2,0-16.3-0.8-24.4-2.2c-8-1.4-16.2-2.5-24.1-3.6c-7.5-1-15.3-2.1-22.9-3.4&#10;&#9;&#9;c-1.1-0.2-1.8-1.2-1.7-2.3c0,0,0,0,0-0.1c1.2-6.6,2-13.3,2.5-20c0.4-6.5,1.2-12.9,2.3-19.3c0.6-2.9,1.1-5.7,1.7-8.6&#10;&#9;&#9;c1.5-7.8,3.1-15.9,4.3-24l0.2-1.6c1.5-10.8,3.6-25.5,14.9-31.6c5.5-2.9,12-3.3,17.8-1.2c4.4-6.2,10.3-11.1,17.2-14.3l0,0&#10;&#9;&#9;c4.4-2,9.1-3.3,13.9-3.7c13.1-0.9,25.9,4.2,34.8,13.9c11.3,12.7,14.5,32.7,15.4,43.5c1.5,18.9,1.9,37.9,1.4,56.9&#10;&#9;&#9;c-0.2,2.1-0.7,4.2-1.5,6.2c-0.1,0.3-0.3,0.6-0.6,0.8C208.9,188.7,192.2,202.5,158.5,202.5z M89.8,189.7c6.9,1.1,13.9,2.1,20.7,3&#10;&#9;&#9;c8,1.1,16.2,2.2,24.3,3.6c44.9,7.9,68.5-8.5,71.8-11c0.5-1.4,0.9-2.9,1.1-4.3c0.5-18.8,0.1-37.7-1.4-56.4&#10;&#9;&#9;c-0.7-8.3-3.4-28.8-14.4-41.1c-8-8.8-19.6-13.4-31.4-12.6c-4.3,0.4-8.6,1.5-12.5,3.3l0,0c-6.7,3.1-12.4,8-16.4,14.2&#10;&#9;&#9;c-0.5,0.9-1.7,1.2-2.6,0.8c-5-2.3-10.9-2.2-15.8,0.4c-9.4,5.1-11.3,18-12.8,28.5l-0.2,1.6c-1.2,8.2-2.8,16.3-4.3,24.2&#10;&#9;&#9;c-0.6,2.9-1.1,5.7-1.7,8.6c-1.1,6.3-1.8,12.6-2.2,18.9C91.5,177.3,90.9,183.6,89.8,189.7z M147.2,72.3L147.2,72.3z"/>
	<path class="st2_dog-walking-79" d="M234.2,260c0,0,22,10,23.8,13.6c5.5,10.9,2.8,14.4,0,14.6c-7.8,0.4-13.2-3.7-15.8-4.7s2.6-0.9-0.6-1.9&#10;&#9;&#9;s-15.4-6.2-15.4-6.2L234.2,260z"/>
	<path class="st1_dog-walking-79" d="M256.9,290.3c-6.2,0-10.9-2.5-13.7-4.1c-0.7-0.4-1.2-0.7-1.7-0.9c-1.3-0.5-2-1.4-2-2.4&#10;&#9;&#9;c-4.4-1.6-13.6-5.6-14-5.8c-0.5-0.2-0.9-0.7-1.1-1.2c-0.2-0.5-0.1-1.1,0.1-1.6l8-15.3c0.5-1,1.7-1.4,2.6-0.9&#10;&#9;&#9;c6.8,3.1,22.8,10.7,24.8,14.5c3.4,6.8,4.2,11.9,2.5,15c-0.9,1.5-2.4,2.5-4.2,2.6C257.7,290.3,257.3,290.3,256.9,290.3z&#10;&#9;&#9; M244.7,282.5l0.3,0.2c2.8,1.5,7.1,3.8,12.8,3.5c0.4,0,0.7-0.2,0.9-0.5c0.8-1.3,0.5-4.9-2.6-11.1c-1.1-1.8-11.4-7.4-21-11.9&#10;&#9;&#9;l-6.1,11.6c3.6,1.5,10.9,4.6,13.2,5.3c0.8,0.3,2.4,0.8,2.5,2.5C244.8,282.2,244.8,282.3,244.7,282.5L244.7,282.5z M241.5,283.7&#10;&#9;&#9;L241.5,283.7z"/>
	<path class="st1_dog-walking-79" d="M144.4,301.4c12.6,2,25.3-2.3,34.2-11.4l-7.6-27.1l-35.8,5.5C135.1,268.4,122.8,298.1,144.4,301.4z"/>
	<path class="st1_dog-walking-79" d="M126.9,405l-16.3-20.4c32.7-23.9,52.5-42.3,55.2-50.7c2.2-6.7-18.8-34.8-26.9-63.1l42.6-3.6&#10;&#9;&#9;c4.1,14.3,12.3,63.2,6.1,82C181.9,367,140.9,394.1,126.9,405z"/>
	<path class="st1_dog-walking-79" d="M126.9,407c-0.6,0-1.2-0.3-1.6-0.8l-16.3-20.4c-0.4-0.4-0.5-1-0.4-1.5c0.1-0.6,0.4-1,0.8-1.4&#10;&#9;&#9;c31.5-23,51.8-41.6,54.5-49.7c0.8-2.4-4.1-11.6-8.7-20.5c-6.2-11.8-13.9-26.5-18.2-41.5c-0.3-1.1,0.3-2.2,1.3-2.5&#10;&#9;&#9;c0.2,0,0.3-0.1,0.5-0.1l42.6-3.6c1-0.1,1.9,0.5,2.1,1.5c3.6,12.6,12.6,63.3,6.1,83.2c-5,15.3-33.3,36.1-52,49.8&#10;&#9;&#9;c-3.8,2.8-7,5.1-9.4,7C127.8,406.8,127.4,407,126.9,407z M113.6,384.9l13.7,17.2c2.2-1.7,4.9-3.7,7.9-5.9&#10;&#9;&#9;c17.2-12.6,45.9-33.7,50.5-47.8c5.7-17.6-1.7-63.7-5.7-79.2l-38.4,3.2c4.3,13.8,11.4,27.3,17.2,38.3c6.9,13.2,10.2,19.8,9,23.6&#10;&#9;&#9;C163.9,346.4,132.9,370.7,113.6,384.9L113.6,384.9z"/>
	<path class="st2_dog-walking-79" d="M165.9,333.9c-2.8,8.4-22.6,26.8-55.2,50.6l16.3,20.5c13.9-10.8,54.9-38,60.8-55.8c0.9-2.9,1.4-5.8,1.7-8.8&#10;&#9;&#9;C181.5,338.5,173.6,336.3,165.9,333.9z"/>
	<path class="st1_dog-walking-79" d="M126.9,407c-0.6,0-1.2-0.3-1.6-0.8l-16.3-20.4c-0.4-0.4-0.5-1-0.4-1.5c0.1-0.6,0.4-1,0.8-1.4&#10;&#9;&#9;c31.4-23,51.8-41.6,54.5-49.6c0.3-1.1,1.5-1.6,2.5-1.3c0,0,0,0,0,0c7.1,2.2,14.8,4.4,23.4,6.5c1,0.2,1.6,1.2,1.6,2.2&#10;&#9;&#9;c-0.3,3.1-0.9,6.2-1.8,9.2c-5,15.3-33.3,36.1-52,49.8c-3.8,2.8-7,5.1-9.4,7C127.8,406.8,127.4,407,126.9,407z M113.6,384.9&#10;&#9;&#9;l13.7,17.2c2.2-1.7,4.9-3.6,7.9-5.9c17.2-12.6,45.9-33.7,50.5-47.8c0.7-2.1,1.1-4.3,1.4-6.6c-7.3-1.8-13.9-3.6-20.1-5.5&#10;&#9;&#9;C160.8,348.8,132,371.4,113.6,384.9L113.6,384.9z"/>
	<polygon class="st1_dog-walking-79" points="169.5,414.8 121.3,276.5 143.4,261.9 195.1,409.2 &#9;"/>
	<path class="st1_dog-walking-79" d="M169.5,416.9c-0.9,0-1.6-0.5-1.9-1.4l-48.2-138.3c-0.3-0.9,0-1.9,0.8-2.4l22.1-14.6c0.5-0.4,1.2-0.4,1.8-0.2&#10;&#9;&#9;c0.6,0.2,1.1,0.7,1.3,1.3l51.7,147.3c0.4,1-0.1,2.2-1.2,2.6c-0.1,0-0.2,0.1-0.3,0.1l-25.6,5.6C169.8,416.8,169.6,416.9,169.5,416.9&#10;&#9;&#9;z M123.7,277.3l47.1,135.1l21.6-4.7l-50.1-142.6L123.7,277.3z"/>
	<path class="st2_dog-walking-79" d="M143.3,339.8l26.2,75.1l25.6-5.6l-26.9-76.6C160,335.2,151.7,337.6,143.3,339.8z"/>
	<path class="st1_dog-walking-79" d="M169.5,416.9c-0.9,0-1.6-0.5-1.9-1.4l-26.2-75.1c-0.4-1,0.1-2.2,1.2-2.6c0.1,0,0.2-0.1,0.2-0.1&#10;&#9;&#9;c8.6-2.2,16.9-4.6,24.8-7.1c1-0.4,2.2,0.2,2.5,1.2c0,0,0,0,0,0l26.9,76.6c0.4,1-0.1,2.2-1.2,2.6c-0.1,0-0.2,0.1-0.3,0.1l-25.6,5.6&#10;&#9;&#9;C169.8,416.8,169.6,416.9,169.5,416.9z M146,341.2l24.8,71.3l21.6-4.7L167,335.1C160.2,337.3,153.2,339.3,146,341.2z"/>
	<path class="st3_dog-walking-79 targetColor" d="M184.2,207c-5.6-10.1-8-14.4-17.4-14.4H141c-10.9,0-19.7,8.8-19.7,19.7v64.2h63.5v-21.4&#10;&#9;&#9;c13.8,14.5,29.8,27.5,49.6,30.3l3.7-26C212.6,255.7,193.6,224,184.2,207z" style="fill: rgb(104, 225, 253);"/>
	<path class="st1_dog-walking-79" d="M234.4,287.4h-0.3c-20-2.9-35.6-15.5-47.3-27.3v16.4c0,1.1-0.9,2-2,2h-63.5c-1.1,0-2-0.9-2-2v-64.2&#10;&#9;&#9;c0-12,9.7-21.7,21.7-21.7h25.8c10.5,0,13.4,5.1,19,15.2l0.1,0.3l0,0c6.5,11.8,26.2,47.6,52.4,51.3c0.5,0.1,1,0.4,1.3,0.8&#10;&#9;&#9;c0.3,0.4,0.5,1,0.4,1.5l-3.7,26C236.3,286.7,235.4,287.4,234.4,287.4z M184.8,253.1c0.6,0,1.1,0.2,1.5,0.6&#10;&#9;&#9;c11.3,11.9,26.6,25.8,46.4,29.3l3.1-22c-27.2-5.4-46.8-41.1-53.4-53.1l-0.2-0.3c-5.5-9.7-7.3-13.1-15.5-13.1H141&#10;&#9;&#9;c-9.7,0-17.6,7.9-17.6,17.6v62.1h59.4v-19.3c0-0.8,0.5-1.6,1.3-1.9C184.3,253.1,184.5,253.1,184.8,253.1L184.8,253.1z"/>
	<polygon class="st4_dog-walking-79" points="148.7,195.6 146.6,276.4 163.6,276.4 163.6,197.4 &#9;"/>
	<path class="st1_dog-walking-79" d="M163.6,278.4h-16.9c-1.1,0-2-0.9-2-2c0,0,0-0.1,0-0.1l2-80.7c0-0.6,0.3-1.1,0.7-1.5c0.4-0.4,1-0.6,1.6-0.5&#10;&#9;&#9;l14.9,1.8c1,0.1,1.8,1,1.8,2v78.9C165.6,277.4,164.8,278.4,163.6,278.4C163.6,278.4,163.6,278.4,163.6,278.4z M148.7,274.3h12.8&#10;&#9;&#9;v-75.1l-10.9-1.3L148.7,274.3z"/>
	<path class="st2_dog-walking-79" d="M149.4,189.3h14.1l0,0v11.2c0,1.6-1.3,2.9-2.9,2.9h-8.2c-1.6,0-2.9-1.3-2.9-2.9V189.3L149.4,189.3z"/>
	<path class="st1_dog-walking-79" d="M157.6,205.5h-2.1c-4.4,0-8-3.6-8-8v-8.1c0-1.1,0.9-2,2-2h14.1c1.1,0,2,0.9,2,2v8.1&#10;&#9;&#9;C165.5,201.9,162,205.4,157.6,205.5z M151.5,191.3v6.1c0,2.2,1.8,4,4,4h2.1c2.2,0,4-1.8,4-4v-6.1H151.5z"/>
	<ellipse class="st2_dog-walking-79" cx="193.1" cy="154" rx="10.6" ry="11.8"/>
	<path class="st1_dog-walking-79" d="M193.1,167.9c-7,0-12.6-6.2-12.6-13.9s5.7-13.9,12.6-13.9s12.6,6.2,12.6,13.9S200.1,167.9,193.1,167.9z&#10;&#9;&#9; M193.1,144.2c-4.7,0-8.6,4.4-8.6,9.8s3.8,9.8,8.6,9.8s8.6-4.4,8.6-9.8S197.9,144.2,193.1,144.2L193.1,144.2z"/>
	<path class="st2_dog-walking-79" d="M156.1,192.6c-23.3,0-44.1-28.7-44.1-51.6l5.5,2.1l-0.2-16.2c0,0,29.1-7.7,25.3-21.2c0,0,8.6,10.2,20.8,10.1&#10;&#9;&#9;c22.6-0.1,31.4-6,31.4-6v41.4C194.9,174.1,179.3,192.6,156.1,192.6z"/>
	<path class="st1_dog-walking-79" d="M156.1,194.6c-24.4,0-46.1-30-46.1-53.6c0-0.7,0.3-1.3,0.9-1.7c0.6-0.4,1.3-0.5,1.9-0.2l2.7,1l-0.2-13.2&#10;&#9;&#9;c0-0.9,0.6-1.8,1.5-2c0.2,0,18.4-5,23.1-13.2c1-1.6,1.3-3.6,0.8-5.5c-0.4-1,0-2.2,1.1-2.6c0.9-0.4,1.9-0.1,2.5,0.8&#10;&#9;&#9;c0.1,0.1,8.1,9.4,19.2,9.4h0.1c21.5-0.1,30.2-5.6,30.3-5.7c0.9-0.6,2.1-0.4,2.8,0.5c0.3,0.4,0.4,0.8,0.4,1.2v41.4&#10;&#9;&#9;C196.9,176.4,179.7,194.6,156.1,194.6z M114.1,144c1.7,25,24.1,46.6,41.9,46.6c21.3,0,36.8-16.6,36.8-39.4v-38.1&#10;&#9;&#9;c-4.4,1.9-13.7,4.7-29.4,4.8h-0.1c-8.2,0-14.8-4.2-18.7-7.3c-0.3,1.1-0.7,2.2-1.3,3.2c-4.7,8.3-19.3,13.2-24.1,14.7l0.2,14.6&#10;&#9;&#9;c0,1.1-0.8,2-1.9,2.1c-0.3,0-0.6,0-0.8-0.1L114.1,144z"/>
	<ellipse class="st1_dog-walking-79" cx="145.6" cy="146" rx="3.8" ry="3.8"/>
	<circle class="st1_dog-walking-79" cx="182.5" cy="146" r="3.8"/>
	<path class="st1_dog-walking-79" d="M166,157.4c-1.3,0-2.6-0.1-3.9-0.3c-1.1-0.2-1.8-1.2-1.7-2.4c0.2-1.1,1.2-1.8,2.4-1.6c1.5,0.3,3.1,0.3,4.7,0.2&#10;&#9;&#9;c-0.7-2.8-1.7-5.5-3.1-8c-0.5-1-0.1-2.2,0.9-2.8s2.2-0.1,2.8,0.9c1.7,3.3,4.5,9.3,3.3,12c-0.4,0.8-1.1,1.4-1.9,1.6&#10;&#9;&#9;C168.2,157.2,167.1,157.4,166,157.4z"/>
	<path class="st1_dog-walking-79" d="M131.4,139.9c-2.3,0-4.1-1.9-4-4.1c0-1.9,1.4-3.6,3.3-4l18-3.5c2.2-0.3,4.3,1.2,4.6,3.5c0.3,2.1-1,4-3.1,4.5&#10;&#9;&#9;l-18,3.5C131.9,139.8,131.6,139.9,131.4,139.9z"/>
	<path class="st1_dog-walking-79" d="M186.5,136.4h-0.2l-18.3-0.8c-2.2-0.1-4-2-3.9-4.2s2-4,4.2-3.9l18.3,0.8c2.2,0,4,1.9,4,4.2&#10;&#9;&#9;C190.6,134.7,188.7,136.5,186.5,136.4L186.5,136.4z"/>
	<path class="st2_dog-walking-79" d="M120.3,143.9c0,0-10.1-7-15.6,2s-0.2,24.4,16.5,19.9"/>
	<path class="st1_dog-walking-79" d="M115.7,168.7c-5,0-9.3-1.9-12-5.6c-3.8-5.4-4.1-12.5-0.7-18.2c1.5-2.7,4.1-4.7,7.1-5.4&#10;&#9;&#9;c5.6-1.2,11.2,2.6,11.4,2.7c0.9,0.6,1.2,1.9,0.5,2.8s-1.9,1.2-2.8,0.5l0,0c-0.1-0.1-4.4-2.9-8.2-2.1c-1.9,0.5-3.5,1.7-4.4,3.5&#10;&#9;&#9;c-2.5,4.3-2.3,9.6,0.5,13.7c2.8,3.7,7.7,4.9,13.8,3.2c1.1-0.3,2.2,0.4,2.5,1.5s-0.4,2.2-1.5,2.5&#10;&#9;&#9;C119.8,168.4,117.7,168.7,115.7,168.7z"/>
	<path class="st1_dog-walking-79" d="M161.4,175.2c-1.4,0-2.8-0.2-4.2-0.5c-5.4-1.3-9.9-5-13.3-11.1c-0.6-1-0.2-2.2,0.8-2.8s2.2-0.2,2.8,0.8&#10;&#9;&#9;c2.8,5,6.4,8.1,10.7,9.1c7.3,1.7,14.2-3,14.3-3c0.9-0.6,2.2-0.4,2.8,0.5c0.6,0.9,0.4,2.2-0.5,2.8l0,0&#10;&#9;&#9;C170.7,173.7,166.1,175.1,161.4,175.2z"/>
	<path class="st3_dog-walking-79 targetColor" d="M169.5,414.8l5.4,16.3l42.6-14c0.8-0.2,1.2-1.1,0.9-1.8c-0.2-0.5-0.5-0.8-1-1l-24.9-6.3L169.5,414.8z" style="fill: rgb(104, 225, 253);"/>
	<path class="st1_dog-walking-79" d="M174.9,433.2c-0.9,0-1.7-0.6-1.9-1.4l-5.4-16.3c-0.4-1,0.2-2.2,1.2-2.6c0,0,0.1,0,0.1,0l23.1-6.7&#10;&#9;&#9;c0.4-0.1,0.7-0.1,1.1,0l24.9,6.3c1.9,0.5,3,2.4,2.5,4.2c-0.3,1.2-1.2,2.1-2.3,2.5l-42.6,14C175.4,433.2,175.2,433.2,174.9,433.2z&#10;&#9;&#9; M172.1,416.2l4.1,12.4l38.8-12.8l-22.3-5.6L172.1,416.2z"/>
	<path class="st3_dog-walking-79 targetColor" d="M110.7,384.5l-13,11.8l31.4,32.7c0.3,0.5,0.9,0.6,1.4,0.3c0.4-0.2,0.6-0.7,0.4-1.1l-2.6-26.7L110.7,384.5z" style="fill: rgb(104, 225, 253);"/>
	<path class="st1_dog-walking-79" d="M129.8,431.3c-0.8,0-1.6-0.4-2.2-1l-31.3-32.6c-0.8-0.8-0.8-2.1,0-2.8c0,0,0.1-0.1,0.1-0.1l13-11.8&#10;&#9;&#9;c0.8-0.7,2-0.7,2.8,0l17.5,17c0.3,0.3,0.6,0.8,0.6,1.3l2.6,26.7c0.1,1.3-0.6,2.6-1.8,3.1C130.7,431.3,130.2,431.3,129.8,431.3z&#10;&#9;&#9; M100.7,396.4l27.9,29.1l-2.3-23.1l-15.6-15.1L100.7,396.4z"/>
	<path class="st2_dog-walking-79" d="M67.4,291.9c-1,4.1-1.3,8.6-2.7,12.6c-1.7,4.9-3,9.6-1.7,14.9c0.6,2.7,2.1,5.1,4.3,6.9&#10;&#9;&#9;c1.8,1.5,5.9,3.4,7.9,1.3c0.7-0.8,1.2-1.7,1.4-2.8c1.3-3.8,2-7.8,2.1-11.8l2.4,5.5c0.3,0.8,0.8,1.6,1.7,1.8s1.7-0.8,2.1-1.7&#10;&#9;&#9;c0.8-2.4,0.9-5,0.3-7.4c-0.5-2.7-1.5-5.5-1.9-8.2c-0.1-0.9,1-9.6,1.3-9.6L67.4,291.9z"/>
	<path class="st1_dog-walking-79" d="M72.8,330.5c-2.5-0.2-4.9-1.1-6.8-2.7c-2.5-2-4.3-4.9-5-8c-1.5-6,0.1-11.2,1.8-16c0.7-2.3,1.3-4.7,1.6-7.1&#10;&#9;&#9;c0.3-1.8,0.6-3.6,1-5.3c0.2-1,1.1-1.6,2.2-1.5l17.2,1.5l0,0c1.1,0.1,1.9,1,1.9,2.1c0,0,0,0,0,0.1c0,0.3-0.1,0.6-0.3,0.9&#10;&#9;&#9;c-0.5,2.8-0.9,5.5-1.1,8.4c0.3,1.4,0.6,2.9,1,4.3c0.3,1.2,0.7,2.5,0.9,3.7c0.4,2.2,0.9,5.5-0.4,8.5c-0.8,2.1-2.5,3.2-4.3,3&#10;&#9;&#9;c-1.1-0.2-2-0.9-2.6-1.9c-0.3,1.7-0.8,3.4-1.3,5c-0.3,1.3-1,2.5-1.8,3.5C75.7,330,74.3,330.6,72.8,330.5z M69,294.1&#10;&#9;&#9;c-0.2,1.1-0.4,2.1-0.6,3.3c-0.4,2.7-0.9,5.3-1.8,7.8c-1.6,4.4-2.9,8.8-1.7,13.7c0.5,2.3,1.8,4.3,3.6,5.8c1.7,1.3,4.4,2.3,5.1,1.5&#10;&#9;&#9;c0.5-0.6,0.8-1.3,1-2c1.2-3.7,1.9-7.5,2-11.3c-0.1-1.1,0.7-2.1,1.8-2.2c1-0.1,1.8,0.5,2.1,1.4l2.4,5.6v0.1c0.6-2,0.7-4.2,0.1-6.2&#10;&#9;&#9;c-0.2-1.1-0.5-2.3-0.8-3.5c-0.5-1.6-0.8-3.2-1.1-4.9c0.1-2.7,0.4-5.4,0.8-8L69,294.1z M84.5,295.4L84.5,295.4z M84.7,295.4&#10;&#9;&#9;L84.7,295.4z M84.5,295.4L84.5,295.4z"/>
	<path class="st3_dog-walking-79 targetColor" d="M143.2,219c-12.8,6.1-43.2,25.6-55.3,75l-25.8-4c0.1-0.8,0.2-1.5,0.3-2.2c14-57.2,49.3-82.1,67.5-91.4" style="fill: rgb(104, 225, 253);"/>
	<path class="st1_dog-walking-79" d="M88,296.1h-0.3l-25.8-4c-1.1-0.1-1.9-1.1-1.7-2.2c0-0.2,0.2-1.6,0.4-2.5c14.1-57.3,49-83.1,68.5-93.1&#10;&#9;&#9;c1-0.5,2.2-0.1,2.7,0.9c0.5,1,0.1,2.2-0.9,2.7c-19,9.7-52.8,34.7-66.4,90.4v0.1l22,3.4c12.6-49,43.2-68.4,55.9-74.6&#10;&#9;&#9;c1-0.5,2.2-0.1,2.7,0.9s0.1,2.2-0.9,2.7l0,0c-12.3,5.9-42.3,25-54.2,73.7C89.8,295.5,88.9,296.1,88,296.1z"/>
	<path class="st5_dog-walking-79" d="M168.2,333.6c-0.5,0-0.9-0.3-1-0.7l-16.1-50.2c-0.2-0.5,0.1-1.1,0.7-1.3s1.1,0.1,1.3,0.7l16.1,50.2&#10;&#9;&#9;c0.2,0.5-0.1,1.1-0.6,1.3c0,0,0,0,0,0C168.4,333.6,168.3,333.6,168.2,333.6z"/>
	<path class="st1_dog-walking-79" d="M184.8,257.1c-1.1,0-2-0.9-2-2v-27c0-1.1,0.9-2,2-2s2,0.9,2,2v27C186.9,256.2,186,257.1,184.8,257.1&#10;&#9;&#9;C184.8,257.1,184.8,257.1,184.8,257.1z"/>
	<path class="st1_dog-walking-79" d="M358.8,334.9c-0.4,0-0.7-0.1-1.1-0.3c-0.7-0.4-70-42.4-91.9-51.7c-1.6-0.7-3-1.3-4.2-1.9&#10;&#9;&#9;c-7.3-3.3-7.9-3.6-13.9,2.4c-6.2,6.3-10.3,27.4-11.4,35.1c-0.2,1.1-1.2,1.9-2.3,1.7s-1.9-1.2-1.7-2.3c0.2-1.2,4-28.9,12.5-37.4&#10;&#9;&#9;c7.6-7.6,10.1-7,18.5-3.2c1.2,0.5,2.6,1.2,4.1,1.8c22.3,9.4,89.6,50.3,92.5,52c1,0.5,1.4,1.7,0.9,2.7&#10;&#9;&#9;C360.4,334.5,359.6,334.9,358.8,334.9L358.8,334.9z"/>
	<path class="st2_dog-walking-79" d="M241,274.7c0,0,1.4,17.5,7.5,15.1s1.1-16.1,1.1-16.1"/>
	<path class="st1_dog-walking-79" d="M247.4,292.1c-0.9,0-1.7-0.3-2.5-0.7c-4.6-2.9-5.7-14.3-5.9-16.5c-0.1-1.1,0.7-2.1,1.9-2.2s2.1,0.7,2.2,1.9&#10;&#9;&#9;c0.4,4.6,1.9,12.1,4,13.4c0.2,0.1,0.5,0.1,0.7,0c3.1-1.2,1.3-9.8,0-13.5c-0.4-1.1,0.2-2.2,1.2-2.6c1.1-0.4,2.2,0.2,2.6,1.2&#10;&#9;&#9;c0.6,1.6,5.3,15.6-2.3,18.6C248.6,292,248,292.1,247.4,292.1z"/>
</g>
<g id="line_dog-walking-79">
	<path class="st1_dog-walking-79" d="M448.9,433.4H51.1c-1.1,0-2-0.9-2-2s0.9-2,2-2h397.7c1.1,0,2,0.9,2,2S450,433.4,448.9,433.4z"/>
</g>
<g id="dog_dog-walking-79">
	<path class="st6_dog-walking-79" d="M387.9,304.7c0,0,4.8-18.8,8.3-19.3s3,19.3,3,19.3H387.9z"/>
	<path class="st1_dog-walking-79" d="M399.1,306.8h-11.3c-0.6,0-1.2-0.3-1.6-0.8c-0.4-0.5-0.5-1.1-0.4-1.8c3.4-13.3,6.8-20.3,9.9-20.9&#10;&#9;&#9;c0.9-0.1,1.8,0.1,2.4,0.7c2.9,2.5,3.1,14,2.9,20.7C401.2,305.9,400.3,306.8,399.1,306.8C399.2,306.8,399.2,306.8,399.1,306.8z&#10;&#9;&#9; M390.5,302.7h6.6c0-6.3-0.4-12.1-1.1-14.5C394.5,290.4,392.2,296.6,390.5,302.7z"/>
	<path class="st7_dog-walking-79" d="M292.2,346.1c0,0-13,0-15.5-9.9s6.6-7.3,13.1-13s7.5-10.2,1.6-12.4s-32.3,3.7-31,19s11.7,28.6,29.2,24.8&#10;&#9;&#9;L292.2,346.1z"/>
	<path class="st1_dog-walking-79" d="M283.8,357.3c-5,0.1-9.9-1.5-13.9-4.5c-6.5-4.8-10.7-13.1-11.5-22.9c-0.5-5.4,2-10.3,7.2-14.2&#10;&#9;&#9;c8.5-6.4,22-8.6,26.6-6.9c3.7,1.4,4.8,3.6,5.1,5.2c0.5,3.1-1.5,6.7-6.1,10.7c-2.4,1.9-5.1,3.3-7.9,4.2c-4.3,1.6-5.8,2.1-4.6,6.7&#10;&#9;&#9;c2.1,8.2,13.5,8.3,13.6,8.3c1.1,0,2,0.8,2,2c0,0.2,0,0.5-0.1,0.7l-2.6,8.6c-0.2,0.7-0.8,1.3-1.5,1.4&#10;&#9;&#9;C288,357.1,285.9,357.3,283.8,357.3z M288,312.4c-4.9,0-14,2.1-20,6.7c-4,3.1-5.9,6.6-5.6,10.6c0.7,8.6,4.3,15.9,9.9,20&#10;&#9;&#9;c4.4,3.2,9.7,4.4,15.7,3.3l1.5-5c-4.4-0.6-12.7-2.8-14.8-11.2c-2.1-8.2,3-10,7.1-11.5c2.4-0.7,4.7-1.9,6.7-3.5&#10;&#9;&#9;c4.9-4.2,4.9-6.3,4.8-6.9c-0.2-1-1.5-1.7-2.5-2.1C289.8,312.5,288.9,312.4,288,312.4z"/>
	<path class="st1_dog-walking-79" d="M380.9,380.4c0,0,24.5,41.2,20.8,44.8s-8.6,4.9-12.2,0.9s-24.3-30.6-23.7-31.1S380.9,380.4,380.9,380.4z"/>
	<path class="st1_dog-walking-79" d="M394.8,430.6h-0.2c-2.5-0.1-4.9-1.2-6.5-3.1c-2-2.2-8.5-10.4-13.5-17c-11.8-15.3-11.6-15.4-10.1-17&#10;&#9;&#9;c0.5-0.5,14.6-14.1,15.2-14.6c0.5-0.4,1.1-0.6,1.7-0.5c0.6,0.1,1.2,0.5,1.5,1c0.1,0.1,6.2,10.5,11.8,21.1&#10;&#9;&#9;c11.1,21.1,10.4,24.5,8.7,26.2C401,429,398,430.5,394.8,430.6z M368.3,395.4c3.5,5.2,19.5,25.8,22.7,29.4c0.9,1.1,2.2,1.7,3.6,1.8&#10;&#9;&#9;c1.7,0.1,3.7-0.9,5.5-2.6c0.4-3.7-9.5-23.2-19.6-40.3L368.3,395.4z"/>
	<path class="st1_dog-walking-79" d="M311.2,373.7c0,0.5,15.7,44.6,14.2,52.5c-0.9,5-10.7,5.4-15-3.5c-5.5-11.3-15.1-36.4-15.1-36.4L311.2,373.7z"/>
	<path class="st1_dog-walking-79" d="M320.3,431.7c-4,0-8.8-2.4-11.6-8.1c-5.5-11.2-14.8-35.6-15.2-36.6c-0.3-0.8-0.1-1.8,0.6-2.3l15.9-12.6&#10;&#9;&#9;c0.8-0.7,2.1-0.6,2.8,0.2c0.2,0.3,0.4,0.6,0.4,0.9c0.1,0.4,0.5,1.7,1.2,3.6c6.7,19.9,14.2,43.5,13,49.7c-0.5,2.7-2.8,4.7-5.9,5.1&#10;&#9;&#9;C321.1,431.7,320.7,431.7,320.3,431.7z M297.8,387c2.1,5.4,9.8,25.3,14.5,34.9c2.2,4.5,6,6.2,8.7,5.8c0.5-0.1,2.2-0.4,2.5-1.8&#10;&#9;&#9;c0.7-4-3.6-20-12.9-47.6c-0.1-0.4-0.2-0.8-0.4-1.1L297.8,387z M313.3,373.7L313.3,373.7z"/>
	<path class="st7_dog-walking-79" d="M358.9,339.3l21-37.2c0,0,0.2-13.1,2.9-16.6s4.6-0.4,5.1,0.9s3.8,13.5,3.8,13.5s38.4,11.7,39.1,14.2&#10;&#9;&#9;s-6.9,15.9-10.2,17s-21.7,1.6-21.7,1.6s-9.1,36.3-11.7,47.1s-9.9,9.8-9.9,9.8s-1.1,40-5.6,40.3s-10.2,0.2-11.5-4.2&#10;&#9;&#9;s-3.1-31.1-3.1-31.1s-33.8-1.8-45.1-11.7c-5,3.2-9.8,6.7-14.4,10.5c0,0-7.5,27.2-10.2,30.8c-4.4,5.8-13.5,4.3-13.4-4.8&#10;&#9;&#9;c0.1-3.8,4-33,8.1-60.1c1.8-11.5,8.2-17.9,12.6-19S358.9,339.3,358.9,339.3z"/>
	<path class="st1_dog-walking-79" d="M368.8,432.1c-3.8,0-9.2-0.8-10.6-5.8c-1.1-3.9-2.6-23.4-3.1-29.8c-7-0.5-32.3-2.9-43.3-11.1&#10;&#9;&#9;c-4.3,2.8-8.5,5.9-12.5,9.1c-1.6,5.7-7.7,27.4-10.4,30.9c-2.5,3.5-7,5-11.1,3.8c-3.8-1.3-6-5-6-9.8c0.1-3.9,3.9-32.7,8.1-60.4&#10;&#9;&#9;c1.8-11.7,8.5-19.2,14.1-20.7c4.3-1.1,53.6-1.1,63.6-1.1l20.2-35.8c0.1-3.2,0.5-13.8,3.4-17.3c1.7-2.2,3.4-2.5,4.5-2.3&#10;&#9;&#9;c2.4,0.3,3.6,2.7,4.1,3.7c0.5,1.2,2.6,9,3.6,12.7c38.4,11.7,39,14.1,39.4,15.3c1.1,3.7-7.5,18.1-11.5,19.5c-3,1-15.7,1.5-20.8,1.7&#10;&#9;&#9;c-1.7,7-9.1,36.2-11.3,45.6c-1.9,8-6.5,10.7-9.9,11.3c-1.2,39.9-5.7,40.3-7.5,40.4C371.1,432,370,432.1,368.8,432.1z M311.9,380.9&#10;&#9;&#9;c0.5,0,1,0.2,1.3,0.5c10.7,9.3,43.5,11.2,43.9,11.2c1,0,1.9,0.9,1.9,1.9c0.5,7.4,2,27.3,3,30.7c0.4,1.4,1.8,3.3,8.9,2.8&#10;&#9;&#9;c2-3,3.8-22,4.2-38.4c0-0.6,0.3-1.1,0.7-1.5c0.4-0.4,1-0.5,1.6-0.5c0.5,0.1,5.6,0.4,7.6-8.2c2.5-10.7,11.6-46.8,11.7-47.1&#10;&#9;&#9;c0.2-0.9,1-1.5,1.9-1.5c7-0.2,19-0.8,21.1-1.5s8.3-10.9,8.8-14.2c-3.4-2.1-21.3-8.2-37.6-13.2c-0.7-0.2-1.2-0.7-1.4-1.4&#10;&#9;&#9;c-1.6-5.9-3.4-12.5-3.7-13.2c-0.2-0.5-0.5-0.9-0.9-1.3c0,0-0.3,0.2-0.8,0.8c-1.6,2-2.4,10.2-2.5,15.4c0,0.4-0.1,0.7-0.3,1l-21,37.2&#10;&#9;&#9;c-0.4,0.6-1,1-1.8,1c-23.1,0-60.8,0.3-63.8,1c-3.4,0.9-9.4,6.3-11.1,17.3c-4,26.5-8,56.2-8.1,59.9c0,3,1.1,5.2,3.2,5.9&#10;&#9;&#9;c2.4,0.7,5.1-0.3,6.5-2.4c1.8-2.4,7-19.8,9.9-30.1c0.1-0.4,0.3-0.7,0.6-1c4.6-3.9,9.5-7.5,14.7-10.7&#10;&#9;&#9;C311.1,381,311.5,380.9,311.9,380.9L311.9,380.9z"/>
	<polygon class="st6_dog-walking-79" points="396.2,358.8 363.3,326.6 355.3,337.7 390,374.7 &#9;"/>
	<path class="st1_dog-walking-79" d="M390,376.8c-0.6,0-1.1-0.2-1.5-0.6L353.8,339c-0.7-0.7-0.8-1.8-0.2-2.6l8.1-11c0.3-0.5,0.9-0.8,1.5-0.8&#10;&#9;&#9;c0.6,0,1.2,0.2,1.6,0.6l32.8,32.1c0.6,0.6,0.8,1.4,0.5,2.2l-6.2,16c-0.3,0.6-0.8,1.1-1.5,1.3C390.3,376.8,390.1,376.8,390,376.8z&#10;&#9;&#9; M357.9,337.5l31.3,33.5l4.5-11.7l-30.2-29.5L357.9,337.5z"/>
	<circle class="st1_dog-walking-79" cx="399.1" cy="313.4" r="3"/>
	<circle class="st1_dog-walking-79" cx="432.2" cy="313.9" r="5"/>
	<path class="st1_dog-walking-79" d="M432.2,321c-3.9,0-7.1-3.2-7.1-7.1c0-3.9,3.2-7.1,7.1-7.1c3.9,0,7.1,3.2,7.1,7.1c0,0,0,0,0,0&#10;&#9;&#9;C439.2,317.8,436.1,321,432.2,321C432.2,321,432.2,321,432.2,321z M432.2,311c-1.7,0-3,1.3-3,3s1.3,3,3,3s3-1.3,3-3&#10;&#9;&#9;S433.8,311,432.2,311z"/>
</g>
</svg>